<?xml version="1.0" standalone="no"?><!DOCTYPE svg PUBLIC "-//W3C//DTD SVG 1.1//EN" "http://www.w3.org/Graphics/SVG/1.1/DTD/svg11.dtd"><svg t="1567595714041" class="icon" viewBox="0 0 1024 1024" version="1.1" xmlns="http://www.w3.org/2000/svg" p-id="1199" xmlns:xlink="http://www.w3.org/1999/xlink" width="200" height="200"><defs><style type="text/css"></style></defs><path d="M742.1 890.2m-70 0a70 70 0 1 0 140 0 70 70 0 1 0-140 0Z" p-id="1200" fill="#ffffff"></path><path d="M438.7 890.2m-70 0a70 70 0 1 0 140 0 70 70 0 1 0-140 0Z" p-id="1201" fill="#ffffff"></path><path d="M829.8 729.4H392.9c-39.1 0-72.3-28-78.9-66.5l-88.6-519.1h-121c-22.1 0-40-17.9-40-40s17.9-40 40-40h121c39.1 0 72.3 28 78.9 66.5l88.6 519.1h436.9c22.1 0 40 17.9 40 40s-17.9 40-40 40z" p-id="1202" fill="#ffffff"></path><path d="M536.4 561.4c-20.9 0-38.5-16.2-39.9-37.4-1.4-22 15.3-41.1 37.3-42.5l301.9-19.8 43.8-224.2H454.9c-22.1 0-40-17.9-40-40s17.9-40 40-40h424.6c24 0 46.5 10.6 61.8 29.1 15.3 18.5 21.4 42.7 16.8 66.2L914.3 477c-6.9 35.3-36.8 61.8-72.7 64.4h-0.3l-302.2 19.8c-0.9 0.2-1.8 0.2-2.7 0.2z m343.3-323.9z" p-id="1203" fill="#ffffff"></path></svg>